<?xml version="1.0" encoding="UTF-8" standalone="no"?><!-- Generator: Gravit.io --><svg xmlns="http://www.w3.org/2000/svg" xmlns:xlink="http://www.w3.org/1999/xlink" style="isolation:isolate" viewBox="0 0 1440 3072" width="1440pt" height="3072pt"><defs><clipPath id="_clipPath_CkxTcV3x3Q4ouGHRVl17MMu0uTwWDmd2"><rect width="1440" height="3072"/></clipPath></defs><g clip-path="url(#_clipPath_CkxTcV3x3Q4ouGHRVl17MMu0uTwWDmd2)"><g><g><path d=" M 796.455 1467.191 C 797.712 1469.808 800.333 1471.339 803.056 1471.335 C 804.115 1471.335 805.193 1471.105 806.208 1470.617 L 813.837 1466.953 L 821.009 1481.891 C 822.267 1484.508 824.888 1486.035 827.611 1486.035 C 828.669 1486.035 829.748 1485.805 830.763 1485.316 L 861.462 1470.574 C 863.22 1469.731 864.544 1468.25 865.193 1466.406 C 865.841 1464.562 865.732 1462.578 864.888 1460.82 L 849.56 1428.902 L 922.408 1393.918 L 937.736 1425.836 C 938.994 1428.454 941.615 1429.981 944.338 1429.981 C 945.396 1429.981 946.474 1429.75 947.49 1429.262 L 978.189 1414.52 C 979.947 1413.676 981.271 1412.196 981.919 1410.352 C 982.568 1408.508 982.458 1406.524 981.615 1404.766 L 974.443 1389.828 L 982.079 1386.16 C 985.716 1384.414 987.251 1380.039 985.505 1376.402 L 961.372 1326.148 C 960.528 1324.391 959.048 1323.066 957.2 1322.418 C 955.357 1321.77 953.372 1321.879 951.614 1322.723 L 943.978 1326.391 L 936.806 1311.453 C 935.06 1307.82 930.685 1306.281 927.048 1308.027 L 896.349 1322.769 C 894.591 1323.613 893.267 1325.093 892.619 1326.937 C 891.97 1328.781 892.079 1330.765 892.923 1332.523 L 908.251 1364.441 L 835.403 1399.425 L 820.075 1367.507 C 818.329 1363.874 813.954 1362.335 810.317 1364.081 L 779.618 1378.823 C 775.986 1380.569 774.447 1384.944 776.193 1388.581 L 783.365 1403.519 L 775.736 1407.183 C 772.103 1408.929 770.564 1413.304 772.31 1416.941 L 796.455 1467.191 Z  M 953.655 1332.561 L 975.678 1378.42 L 970.244 1381.029 L 948.221 1335.17 L 953.655 1332.561 Z  M 902.784 1330.498 L 929.089 1317.865 L 971.788 1406.779 L 945.483 1419.412 L 925.381 1377.553 L 917.056 1360.217 L 902.784 1330.498 Z  M 912.487 1373.225 L 918.201 1385.123 L 845.353 1420.107 L 839.639 1408.209 L 912.487 1373.225 Z  M 812.367 1373.921 L 826.64 1403.64 L 826.433 1403.737 L 840.589 1433.214 L 840.796 1433.117 L 855.069 1462.836 L 828.764 1475.469 L 819.482 1456.141 L 786.068 1386.555 L 812.367 1373.921 Z  M 787.609 1412.3 L 809.632 1458.159 L 804.198 1460.768 L 782.175 1414.909 L 787.609 1412.3 Z " fill="rgb(0,0,0)"/><path d=" M 498.955 1545.201 L 545.728 1545.201 L 545.728 1562.65 C 545.728 1569.97 551.681 1575.923 559.001 1575.923 L 623.317 1575.923 C 630.637 1575.923 636.59 1569.97 636.59 1562.65 L 636.59 1545.201 L 683.363 1545.201 C 687.394 1545.201 690.675 1541.92 690.675 1537.888 L 690.675 1466.501 L 692.781 1466.501 C 699.12 1466.501 704.281 1461.341 704.281 1455.001 L 704.281 1446.783 C 704.281 1440.443 699.12 1435.283 692.781 1435.283 L 690.675 1435.283 L 690.675 1363.896 C 690.675 1359.864 687.394 1356.583 683.363 1356.583 L 636.59 1356.583 L 636.59 1338.669 C 636.59 1331.349 630.636 1325.396 623.317 1325.396 L 558.997 1325.4 C 551.676 1325.4 545.724 1331.353 545.724 1338.673 L 545.724 1356.587 L 498.954 1356.587 C 494.922 1356.587 491.641 1359.868 491.641 1363.9 L 491.641 1537.89 C 491.641 1541.921 494.922 1545.202 498.954 1545.202 L 498.955 1545.201 Z  M 690.675 1445.041 L 692.78 1445.041 C 693.729 1445.041 694.53 1445.842 694.53 1446.791 L 694.53 1455.01 C 694.53 1455.959 693.729 1456.76 692.78 1456.76 L 690.675 1456.76 L 690.675 1445.041 Z  M 626.843 1562.651 C 626.843 1564.592 625.261 1566.174 623.319 1566.174 L 558.999 1566.174 C 557.058 1566.174 555.476 1564.592 555.476 1562.651 L 555.476 1545.202 L 626.839 1545.202 L 626.843 1562.651 Z  M 555.476 1338.671 C 555.476 1336.729 557.058 1335.147 558.999 1335.147 L 623.315 1335.147 C 625.256 1335.147 626.838 1336.729 626.838 1338.671 L 626.838 1356.585 L 555.475 1356.585 L 555.476 1338.671 Z  M 501.394 1366.335 L 680.924 1366.335 L 680.924 1535.445 L 501.394 1535.445 L 501.394 1366.335 Z " fill="rgb(0,0,0)"/><path d=" M 660.075 1378.591 L 522.235 1378.591 C 518.203 1378.591 514.922 1381.872 514.922 1385.903 L 514.922 1515.883 C 514.922 1519.915 518.203 1523.196 522.235 1523.196 L 660.075 1523.196 C 664.106 1523.196 667.387 1519.915 667.387 1515.883 L 667.387 1385.903 C 667.387 1381.872 664.106 1378.591 660.075 1378.591 Z  M 657.637 1513.451 L 524.677 1513.451 L 524.677 1388.341 L 657.637 1388.341 L 657.637 1513.451 Z " fill="rgb(0,0,0)"/><path d=" M 538.645 1475.751 L 563.399 1475.751 C 565.086 1475.751 566.656 1474.876 567.543 1473.442 L 575.774 1460.141 L 587.86 1489.911 C 588.586 1491.696 590.293 1492.888 592.219 1492.95 C 592.274 1492.95 592.324 1492.954 592.379 1492.954 C 594.242 1492.954 595.949 1491.888 596.766 1490.204 L 605.695 1471.743 L 635.757 1471.743 C 638.449 1471.743 640.632 1469.56 640.632 1466.868 C 640.632 1464.177 638.449 1461.993 635.757 1461.993 L 602.636 1461.989 C 600.765 1461.989 599.062 1463.06 598.25 1464.739 L 592.765 1476.075 L 581.195 1447.575 C 580.504 1445.876 578.918 1444.704 577.09 1444.552 C 575.258 1444.4 573.5 1445.282 572.535 1446.845 L 560.683 1466.001 L 538.644 1466.001 C 535.953 1466.001 533.769 1468.185 533.769 1470.876 C 533.769 1473.571 535.953 1475.751 538.644 1475.751 L 538.645 1475.751 Z " fill="rgb(0,0,0)"/><path d=" M 617.185 1460.241 L 638.681 1441.831 L 638.993 1441.538 C 642.298 1438.163 644.118 1433.71 644.118 1428.999 C 644.118 1419.112 636.075 1411.069 626.188 1411.069 C 623.04 1411.069 619.946 1411.975 617.184 1413.671 C 614.422 1411.975 611.329 1411.069 608.18 1411.069 C 598.294 1411.069 590.25 1419.112 590.25 1428.999 C 590.25 1433.714 592.074 1438.171 595.383 1441.55 L 617.185 1460.241 Z  M 608.185 1420.823 C 610.122 1420.823 612.161 1421.729 613.782 1423.311 L 617.188 1426.631 L 620.591 1423.311 C 622.212 1421.729 624.255 1420.823 626.188 1420.823 C 630.7 1420.823 634.368 1424.491 634.368 1429.003 C 634.368 1431.088 633.587 1433.061 632.161 1434.585 L 617.188 1447.409 L 602.223 1434.593 C 600.793 1433.065 600.008 1431.089 600.008 1429.003 C 600.004 1424.491 603.672 1420.823 608.184 1420.823 L 608.185 1420.823 Z " fill="rgb(0,0,0)"/><path d=" M 981.165 1606.211 L 939.919 1606.211 L 939.919 1588.516 L 950.489 1588.516 C 954.52 1588.516 957.801 1585.235 957.801 1581.203 L 957.801 1517.394 C 957.801 1513.363 954.52 1510.082 950.489 1510.082 L 939.919 1510.082 L 939.919 1490.34 C 939.919 1486.309 936.637 1483.027 932.606 1483.027 L 893.376 1483.027 C 889.345 1483.027 886.064 1486.309 886.064 1490.34 L 886.064 1531.426 L 793.212 1531.426 L 793.212 1490.34 C 793.212 1486.309 789.93 1483.027 785.899 1483.027 L 746.669 1483.027 C 742.638 1483.027 739.357 1486.309 739.357 1490.34 L 739.357 1510.082 L 728.795 1510.082 C 724.763 1510.082 721.482 1513.363 721.482 1517.394 L 721.482 1581.203 C 721.482 1585.235 724.763 1588.516 728.795 1588.516 L 739.357 1588.516 L 739.357 1606.211 L 485.967 1606.211 C 483.275 1606.211 481.092 1608.394 481.092 1611.086 C 481.092 1613.777 483.275 1615.961 485.967 1615.961 L 981.167 1615.961 C 983.858 1615.961 986.042 1613.777 986.042 1611.086 C 986.038 1608.394 983.854 1606.211 981.163 1606.211 L 981.165 1606.211 Z  M 939.927 1519.832 L 948.052 1519.832 L 948.052 1578.766 L 939.927 1578.766 L 939.927 1519.832 Z  M 739.357 1578.766 L 731.232 1578.766 L 731.232 1519.832 L 739.357 1519.832 L 739.357 1578.766 Z  M 783.462 1531.426 L 783.2 1531.426 L 783.2 1567.176 L 783.462 1567.176 L 783.462 1605.824 L 749.107 1605.824 L 749.107 1492.784 L 783.462 1492.784 L 783.462 1531.426 Z  M 886.062 1606.211 L 793.21 1606.211 L 793.21 1567.172 L 886.062 1567.172 L 886.062 1606.211 Z  M 886.062 1557.426 L 793.21 1557.426 L 793.21 1541.176 L 886.062 1541.176 L 886.062 1557.426 Z  M 930.167 1605.824 L 895.812 1605.824 L 895.812 1492.774 L 930.167 1492.774 L 930.167 1605.824 Z " fill="rgb(0,0,0)"/></g></g></g></svg>